<?xml version="1.0" standalone="no"?>
<!DOCTYPE svg PUBLIC "-//W3C//DTD SVG 20010904//EN"
 "http://www.w3.org/TR/2001/REC-SVG-20010904/DTD/svg10.dtd">
<svg version="1.0" xmlns="http://www.w3.org/2000/svg"
 width="525.000000pt" height="525.000000pt" viewBox="0 0 525.000000 525.000000"
 preserveAspectRatio="xMidYMid meet">
<metadata>
Created by potrace 1.14, written by Peter Selinger 2001-2017
</metadata>
<g transform="translate(0.000000,525.000000) scale(0.100000,-0.100000)"
fill="#000000" stroke="none">
<path d="M2597 5184 c-1 -1 -56 -4 -122 -7 -66 -4 -136 -8 -155 -11 -19 -3
-55 -8 -79 -11 -37 -5 -206 -38 -251 -50 -111 -28 -310 -93 -325 -106 -5 -5
-15 -9 -23 -9 -18 0 -186 -81 -287 -138 -93 -52 -241 -150 -305 -201 -25 -20
-49 -39 -55 -44 -46 -35 -190 -172 -260 -248 -173 -188 -327 -434 -428 -684
-44 -108 -108 -324 -123 -415 -4 -25 -8 -47 -9 -50 -1 -5 -15 -108 -21 -165
-5 -41 -5 -329 0 -390 26 -323 136 -661 309 -950 245 -408 611 -738 1050 -945
89 -42 219 -96 252 -104 6 -2 17 -6 25 -9 110 -44 403 -107 575 -124 97 -9
425 -9 510 0 39 5 77 9 85 9 77 3 338 61 478 107 192 63 542 227 542 254 0 4
5 7 11 7 20 0 260 173 325 235 139 132 209 204 291 302 10 12 26 31 36 42 9
12 17 25 17 30 0 5 3 11 8 13 7 3 49 61 82 113 15 23 75 126 113 195 50 89
150 347 163 418 3 14 9 32 13 41 5 9 9 18 8 21 0 5 9 56 18 100 8 33 22 122
31 185 16 110 8 492 -11 585 -3 14 -8 41 -11 60 -54 351 -254 767 -514 1075
-30 35 -216 221 -251 251 -125 105 -283 216 -399 281 -120 67 -149 81 -245
122 -149 64 -336 127 -436 146 -13 3 -60 12 -104 21 -44 8 -98 17 -120 20 -22
2 -53 6 -70 9 -16 3 -79 8 -140 11 -60 3 -129 6 -153 8 -23 1 -43 1 -45 0z"/>
</g>
</svg>
