<?xml version="1.0" standalone="no"?>
<!DOCTYPE svg PUBLIC "-//W3C//DTD SVG 20010904//EN"
 "http://www.w3.org/TR/2001/REC-SVG-20010904/DTD/svg10.dtd">
<svg version="1.0" xmlns="http://www.w3.org/2000/svg"
 width="1050.000000pt" height="1050.000000pt" viewBox="0 0 1050.000000 1050.000000"
 preserveAspectRatio="xMidYMid meet">
<metadata>
Created by potrace 1.14, written by Peter Selinger 2001-2017
</metadata>
<g transform="translate(0.000000,1050.000000) scale(0.100000,-0.100000)"
fill="#000000" stroke="none">
<path d="M4925 10360 c-1277 -88 -2420 -596 -3285 -1460 -752 -751 -1201
-1674 -1327 -2728 -25 -208 -25 -736 0 -944 126 -1055 572 -1973 1327 -2728
1108 -1108 2677 -1627 4300 -1424 1096 137 2143 648 2920 1424 681 679 1125
1523 1284 2438 50 286 60 414 60 762 0 348 -10 476 -60 762 -272 1560 -1374
2889 -2924 3523 -456 187 -952 308 -1471 360 -188 19 -647 27 -824 15z m696
-250 c1560 -120 2941 -940 3720 -2210 591 -964 770 -2105 503 -3200 -273
-1118 -1019 -2107 -2064 -2732 -637 -382 -1344 -607 -2115 -674 -231 -20 -730
-15 -948 10 -801 91 -1526 349 -2171 772 -275 181 -498 364 -742 608 -729 730
-1160 1644 -1255 2656 -6 69 -11 231 -11 360 0 338 27 593 97 910 410 1845
2055 3260 4046 3480 101 11 207 21 234 23 124 8 584 6 706 -3z"/>
<path d="M3745 8594 c-290 -39 -561 -137 -775 -279 -98 -65 -284 -250 -347
-345 -131 -195 -191 -373 -208 -610 -7 -83 4 -237 20 -290 4 -13 54 -15 386
-12 306 3 384 1 390 -10 6 -8 9 -9 9 -2 0 7 7 15 16 18 8 3 12 2 9 -4 -3 -6
-1 -10 6 -10 8 0 9 13 4 45 -10 69 -7 214 6 276 17 85 81 207 144 277 132 145
318 230 553 252 60 6 405 10 788 10 l681 0 259 337 c143 185 263 342 267 350
12 19 -2061 17 -2208 -3z"/>
<path d="M3962 5343 l3 -418 425 2 c234 1 774 5 1200 8 l775 5 247 317 c136
175 247 321 247 326 1 4 -460 7 -1024 7 l-1025 0 0 85 0 85 -425 0 -425 0 2
-417z"/>
<path d="M2965 3437 c-69 -23 -104 -46 -134 -88 -86 -118 -53 -292 65 -350 42
-21 64 -24 152 -24 111 0 122 5 122 56 0 26 -1 27 -37 18 -91 -21 -166 -5
-213 45 -36 39 -41 139 -10 194 40 71 127 100 233 79 l37 -8 0 35 c0 19 -5 38
-11 41 -22 14 -164 15 -204 2z"/>
<path d="M3833 3310 c-27 -16 -33 -17 -33 -5 0 11 -12 15 -44 15 l-44 0 -6
-137 c-4 -76 -8 -154 -9 -173 l-2 -35 45 0 45 0 6 105 c8 139 26 170 98 170
29 0 31 2 31 40 0 37 -2 40 -27 40 -16 0 -43 -9 -60 -20z"/>
<path d="M4113 3310 c-27 -16 -33 -17 -33 -5 0 11 -12 15 -44 15 l-44 0 -6
-137 c-4 -76 -8 -154 -9 -173 l-2 -35 45 0 45 0 6 105 c8 139 26 170 98 170
29 0 31 2 31 40 0 37 -2 40 -27 40 -16 0 -43 -9 -60 -20z"/>
<path d="M4340 3308 c-113 -57 -128 -236 -27 -312 24 -18 42 -21 127 -21 54 0
101 2 103 5 3 3 8 17 12 32 l7 26 -81 -5 c-79 -6 -80 -5 -110 25 -21 21 -31
40 -31 61 l0 31 125 0 125 0 0 41 c0 114 -133 176 -250 117z m140 -58 c11 -11
20 -29 20 -40 0 -18 -7 -20 -75 -20 -67 0 -75 2 -75 19 0 26 46 61 81 61 16 0
38 -9 49 -20z"/>
<path d="M4824 3316 c-18 -8 -35 -19 -38 -25 -11 -17 -27 -13 -24 7 2 14 -6
18 -44 20 l-46 3 -9 -153 c-4 -84 -8 -162 -8 -173 0 -17 7 -20 45 -20 l45 0 7
90 c10 116 14 132 43 161 17 17 35 24 64 24 64 0 74 -24 70 -163 l-4 -112 45
0 45 0 7 134 c6 99 5 140 -5 160 -25 53 -124 77 -193 47z"/>
<path d="M5190 3308 c-111 -57 -124 -246 -21 -315 28 -19 48 -23 112 -23 43 0
80 3 82 8 3 4 8 21 11 39 l7 31 -60 -5 c-46 -4 -66 -2 -85 11 -49 31 -52 134
-6 180 17 17 32 21 90 20 64 0 70 1 70 20 0 39 -15 48 -86 53 -58 4 -76 1
-114 -19z"/>
<path d="M3265 3308 c-9 -31 -12 -255 -3 -280 13 -38 55 -58 121 -58 41 0 63
6 90 24 l36 25 3 -22 c2 -18 11 -23 44 -25 l42 -3 6 138 c4 76 9 155 12 176
l6 37 -50 0 -49 0 -5 -104 c-3 -76 -9 -112 -22 -131 -31 -47 -94 -56 -132 -18
-15 15 -16 32 -10 135 l7 118 -46 0 c-28 0 -47 -5 -50 -12z"/>
<path d="M5434 3304 c3 -8 31 -88 61 -177 50 -143 54 -164 44 -190 -17 -40
-50 -59 -96 -55 -37 3 -38 2 -34 -27 4 -37 15 -45 69 -45 46 0 87 17 113 46
15 17 209 443 209 458 0 3 -20 6 -44 6 l-44 0 -32 -77 c-18 -42 -41 -100 -53
-130 -12 -34 -23 -49 -27 -41 -4 7 -22 66 -40 131 l-34 117 -49 0 c-40 0 -48
-3 -43 -16z"/>
</g>
</svg>
